<svg id="visual" viewBox="0 0 960 400" width="960" height="400" xmlns="http://www.w3.org/2000/svg"
    xmlns:xlink="http://www.w3.org/1999/xlink" version="1.1">
    <rect x="0" y="0" width="960" height="400" fill="#0066FF"></rect>
    <path
        d="M0 300L22.8 306.7C45.7 313.3 91.3 326.7 137 324.5C182.7 322.3 228.3 304.7 274 300.8C319.7 297 365.3 307 411.2 310.5C457 314 503 311 548.8 311C594.7 311 640.3 314 686 307.8C731.7 301.7 777.3 286.3 823 280.7C868.7 275 914.3 279 937.2 281L960 283L960 401L937.2 401C914.3 401 868.7 401 823 401C777.3 401 731.7 401 686 401C640.3 401 594.7 401 548.8 401C503 401 457 401 411.2 401C365.3 401 319.7 401 274 401C228.3 401 182.7 401 137 401C91.3 401 45.7 401 22.8 401L0 401Z"
        fill="#FBF8BE" stroke-linecap="round" stroke-linejoin="miter"></path>
</svg>