<svg id="visual" viewBox="0 0 900 400" width="900" height="400" xmlns="http://www.w3.org/2000/svg"
    xmlns:xlink="http://www.w3.org/1999/xlink" version="1.1">
    <rect x="0" y="0" width="900" height="400" fill="#0066FF"></rect>
    <path
        d="M0 81L21.5 87.3C43 93.7 86 106.3 128.8 102.5C171.7 98.7 214.3 78.3 257.2 79.5C300 80.7 343 103.3 385.8 108.5C428.7 113.7 471.3 101.3 514.2 94.2C557 87 600 85 642.8 89.5C685.7 94 728.3 105 771.2 99.5C814 94 857 72 878.5 61L900 50L900 0L878.5 0C857 0 814 0 771.2 0C728.3 0 685.7 0 642.8 0C600 0 557 0 514.2 0C471.3 0 428.7 0 385.8 0C343 0 300 0 257.2 0C214.3 0 171.7 0 128.8 0C86 0 43 0 21.5 0L0 0Z"
        fill="#FBF8BE" stroke-linecap="round" stroke-linejoin="miter"></path>
</svg>